<svg viewBox="0 0 32.6238 37.9688" fill="none" xmlns="http://www.w3.org/2000/svg">
<g id="Frame 1">
<path id="Vector" d="M23.5507 0.367992L7.50934 3.80989C6.56213 4.01312 5.95902 4.94575 6.16226 5.89296L12.6588 36.1706C12.862 37.1179 13.7946 37.721 14.7418 37.5177L30.7832 34.0758C31.7304 33.8726 32.3335 32.94 32.1303 31.9928L25.6338 1.71508C25.4305 0.767866 24.4979 0.164755 23.5507 0.367992Z" fill="var(--fill-0, #6D84A5)"/>
<path id="Vector_2" d="M30.9262 32.8013L14.0899 36.4147C13.8982 36.4557 13.7087 36.3339 13.6666 36.141L7.09567 5.50343C7.05467 5.31173 7.17656 5.12224 7.36937 5.08014L24.2046 1.46664C24.3963 1.42564 24.5858 1.54753 24.6279 1.74034L31.1999 32.3791C31.2409 32.5708 31.1191 32.7603 30.9262 32.8024V32.8013Z" fill="var(--fill-0, #CBD5E1)"/>
<g id="Group">
<path id="Vector_3" opacity="0.35" d="M22.2061 9.35408L22.2105 9.35076L22.2205 9.39841L25.0594 22.6257C25.1314 22.9615 25.0151 23.2928 24.7835 23.5177C24.7835 23.5177 24.7835 23.5177 24.7835 23.52C24.7425 23.5565 24.6993 23.5942 24.6538 23.6241C24.6417 23.6341 24.625 23.6396 24.6106 23.6496C24.5741 23.6707 24.5397 23.6917 24.4987 23.7105C24.4433 23.7338 24.3846 23.7538 24.3225 23.7671L21.0126 24.4773L22.0631 29.3729L27.2207 33.5958L30.9262 32.8002C31.1179 32.7592 31.2409 32.5697 31.1999 32.3769L30.9794 31.3486L30.8907 30.9331L26.8434 12.0645L21.8969 8.86652C22.0443 8.98952 22.1551 9.15573 22.2072 9.35297L22.2061 9.35408Z" fill="var(--fill-0, #94A3B8)"/>
<path id="Vector_4" d="M22.9153 9.88025C22.8487 9.62761 22.6873 9.42261 22.4768 9.29961C22.2804 9.18215 22.0459 9.13451 21.8059 9.18659H21.8048L1.97341 13.5104H1.97123C1.73889 13.5613 1.54799 13.6987 1.41491 13.8794C1.41491 13.8805 1.41382 13.8827 1.41273 13.8838C1.41163 13.8871 1.40836 13.8893 1.40509 13.8938H1.40836C1.332 14.0001 1.27746 14.1209 1.24801 14.2484C1.24692 14.2583 1.24801 14.2705 1.24365 14.2805C1.23383 14.3359 1.2251 14.3902 1.2251 14.4467C1.2251 14.4999 1.23274 14.5531 1.24037 14.6063H1.23383L1.24365 14.6528L4.03837 27.8801C4.09618 28.1549 4.2729 28.3721 4.49543 28.5029L4.49216 28.5062C4.50088 28.5117 4.5107 28.5151 4.52052 28.5195C4.5227 28.5217 4.52706 28.525 4.53033 28.5262V28.5239C4.72014 28.6248 4.94049 28.6669 5.16302 28.6181L17.7207 25.88L22.7746 29.8991L21.7405 25.0035L24.9988 24.2932C25.0599 24.2799 25.1177 24.26 25.1722 24.2367C25.2115 24.219 25.2464 24.1968 25.2824 24.1758C25.2966 24.1658 25.3129 24.1603 25.3249 24.1503C25.3697 24.1193 25.4122 24.0827 25.4526 24.0461C25.4526 24.0439 25.4526 24.0439 25.4526 24.0439C25.6816 23.819 25.7962 23.4876 25.7242 23.1519L22.9295 9.92458L22.9196 9.87693L22.9153 9.88025V9.88025Z" fill="var(--fill-0, #94A3B8)"/>
<path id="Vector_5" d="M21.1639 9.05642C21.3018 9.02702 21.4374 9.05226 21.5555 9.12185L21.5585 9.12381C21.6814 9.1945 21.7762 9.3127 21.8153 9.45877L21.8192 9.45681L21.8241 9.48123L21.8251 9.48318L24.6639 22.7107V22.7117C24.7051 22.9007 24.6411 23.0917 24.5018 23.2263C24.4724 23.2522 24.4497 23.2717 24.4296 23.2859C24.4286 23.2865 24.4277 23.2873 24.4266 23.2879C24.4217 23.2906 24.4159 23.2945 24.409 23.2986C24.3575 23.3283 24.3486 23.3324 24.3348 23.3386C24.3 23.3529 24.2684 23.3644 24.2381 23.3709H24.2372L20.9276 24.0818C20.7091 24.1288 20.5702 24.3438 20.6171 24.5623L21.4335 28.366L17.1786 25.0349C17.1076 24.9795 17.0209 24.9497 16.9325 24.949L16.8446 24.9578L4.08776 27.6961C3.9658 27.7224 3.83774 27.7022 3.71764 27.6394C3.71544 27.6383 3.71302 27.6376 3.71081 27.6365C3.70611 27.6335 3.70197 27.6295 3.69713 27.6267C3.59202 27.5659 3.5106 27.4788 3.46276 27.3767L3.42663 27.2693L0.589712 14.0506C0.589008 14.041 0.590132 14.0308 0.588736 14.0213C0.580299 13.9634 0.577033 13.9395 0.577017 13.9207C0.577017 13.9041 0.579324 13.8815 0.588736 13.8289C0.590752 13.8192 0.592442 13.8105 0.593619 13.8025C0.611753 13.7323 0.643149 13.6655 0.686392 13.6062C0.691903 13.5987 0.695133 13.5897 0.700064 13.5818C0.781846 13.4785 0.8904 13.4068 1.01549 13.3797H1.01745L21.1639 9.05642ZM3.72155 27.6433C3.726 27.6458 3.73034 27.6488 3.73424 27.6511C3.72954 27.6482 3.72442 27.6461 3.7196 27.6433L3.71764 27.6414C3.719 27.6421 3.72035 27.6427 3.72155 27.6433ZM3.67858 27.6209L3.68053 27.6219C3.6745 27.6192 3.66927 27.617 3.66686 27.616C3.66493 27.6152 3.6648 27.6154 3.66393 27.615H3.66491C3.66651 27.6157 3.67185 27.6175 3.67858 27.6209ZM24.7831 23.5174H24.7801L24.7508 23.4842L24.7831 23.5174Z" fill="var(--fill-0, white)" stroke="var(--stroke-0, #DEE1E6)" stroke-width="0.809524" stroke-linejoin="round"/>
</g>
<g id="Group_2">
<g id="Group_3">
<path id="Vector_6" d="M18.1272 16.9988C18.8873 20.0372 17.0412 23.1166 14.0028 23.8767C10.9644 24.6369 7.88504 22.7908 7.12489 19.7524C6.36474 16.714 8.21082 13.6346 11.2492 12.8733C14.2876 12.1132 17.367 13.9593 18.1272 16.9977V16.9988Z" fill="var(--fill-0, #F97316)"/>
<g id="Group_4">
<path id="Vector_7" d="M14.118 21.45C14.2122 21.8256 13.9839 22.2057 13.6083 22.2999C13.2327 22.394 12.8526 22.1658 12.7584 21.7901C12.6642 21.4145 12.8925 21.0344 13.2681 20.9402C13.6438 20.846 14.0238 21.0743 14.118 21.45Z" fill="var(--fill-0, white)"/>
<path id="Vector_8" d="M11.6437 14.4524C11.2037 14.5621 10.9267 14.9222 11.0198 15.2347C11.4486 16.7007 11.8775 18.1678 12.3063 19.6338C12.4005 19.9474 12.7285 20.1247 13.0432 20.0471C13.3579 19.9684 13.564 19.656 13.4986 19.3357C13.1861 17.8398 12.8736 16.345 12.5612 14.8491C12.4969 14.5288 12.0825 14.3427 11.6426 14.4535L11.6437 14.4524Z" fill="var(--fill-0, white)"/>
</g>
</g>
</g>
</g>
</svg>
